<svg width="119" height="36" viewBox="0 0 119 36" fill="none" xmlns="http://www.w3.org/2000/svg">
<g clip-path="url(#clip0_67_1719)">
<path fill-rule="evenodd" clip-rule="evenodd" d="M73.9559 28.1663C67.0502 33.2974 57.0055 36.0312 48.342 36.0312C36.2047 36.0312 25.323 31.531 17.0362 24.0446C16.4084 23.4558 16.9525 22.6567 17.7477 23.1194C26.6623 28.3346 37.6696 31.4469 49.0535 31.4469C56.7125 31.4469 65.1668 29.8487 72.9514 26.5261C74.1233 26.0634 75.0859 27.3252 73.9559 28.1663Z" fill="white"/>
<path fill-rule="evenodd" clip-rule="evenodd" d="M76.6184 24.8427C75.7502 23.7086 70.8301 24.2966 68.6388 24.5906C67.9772 24.6746 67.8532 24.0866 68.4734 23.6666C72.4012 20.8523 78.8097 21.6924 79.5539 22.6165C80.2982 23.5405 79.3472 30.0931 75.6675 33.2014C75.0886 33.6634 74.5511 33.4114 74.7992 32.7813C75.6261 30.6812 77.4867 26.0188 76.6184 24.8427Z" fill="white"/>
<path fill-rule="evenodd" clip-rule="evenodd" d="M68.7695 4.00473V1.2355C68.7695 0.809465 69.0617 0.553841 69.4375 0.553841H81.5463C81.9221 0.553841 82.2561 0.852069 82.2561 1.2355V3.5787C82.2561 3.96213 81.9221 4.47337 81.3375 5.32545L75.0744 14.4426C77.4126 14.4 79.8761 14.7408 81.9639 15.9337C82.4232 16.1894 82.5484 16.6154 82.5902 16.9988V19.9385C82.5902 20.3645 82.1726 20.8331 81.7133 20.5775C77.9972 18.5751 73.0284 18.3621 68.9365 20.6201C68.5189 20.8331 68.0596 20.4071 68.0596 19.9811V17.1692C68.0596 16.7432 68.0597 15.9763 68.5189 15.2947L75.7842 4.68639H69.4793C69.1035 4.68639 68.7695 4.38816 68.7695 4.00473V4.00473ZM24.6351 21.174H20.9607C20.6267 21.1314 20.3344 20.8757 20.2926 20.5349V1.27811C20.2926 0.894675 20.6267 0.596447 21.0025 0.596447H24.4263C24.8021 0.596447 25.0526 0.894672 25.0944 1.2355V3.74911H25.1779C26.0547 1.32071 27.7667 0.170412 30.0214 0.170412C32.3179 0.170412 33.7793 1.32071 34.7814 3.74911C35.6582 1.32071 37.7042 0.170412 39.8754 0.170412C41.4204 0.170412 43.0905 0.809465 44.1344 2.30059C45.3035 3.91953 45.053 6.26273 45.053 8.3503V20.5349C45.053 20.9183 44.719 21.2166 44.3432 21.2166H40.7105C40.3347 21.174 40.0425 20.8757 40.0425 20.5349V10.3101C40.0425 9.50059 40.126 7.45562 39.959 6.68875C39.6667 5.41064 38.8733 5.02722 37.7877 5.02722C36.9109 5.02722 35.9505 5.62367 35.5747 6.60355C35.1989 7.58343 35.2407 9.20236 35.2407 10.3101V20.5349C35.2407 20.9183 34.9067 21.2166 34.5309 21.2166H30.8565C30.4807 21.174 30.1884 20.8757 30.1884 20.5349V10.3101C30.1884 8.17988 30.5225 4.98461 27.9337 4.98461C25.3032 4.98461 25.3867 8.05207 25.3867 10.3101V20.5349C25.3449 20.8757 25.0526 21.174 24.6351 21.174V21.174ZM92.6947 0.170412C98.1646 0.170412 101.129 4.94201 101.129 11.0343C101.129 16.9136 97.8723 21.6 92.6947 21.6C87.3502 21.6 84.4274 16.8284 84.4274 10.8639C84.3856 4.85681 87.3502 0.170412 92.6947 0.170412ZM92.6947 4.13254C89.9807 4.13254 89.8137 7.92426 89.8137 10.2675C89.8137 12.6107 89.7719 17.6379 92.653 17.6379C95.4923 17.6379 95.6593 13.5905 95.6593 11.1195C95.6593 9.5006 95.5758 7.54083 95.1165 6.0071C94.6989 4.64379 93.8639 4.13254 92.6947 4.13254ZM108.186 21.174H104.511C104.135 21.1314 103.843 20.8331 103.843 20.4923V1.19289C103.885 0.852066 104.177 0.553841 104.553 0.553841H107.977C108.311 0.553841 108.561 0.80947 108.645 1.1077V4.04734H108.728C109.772 1.40592 111.192 0.170412 113.739 0.170412C115.367 0.170412 116.996 0.766856 118.04 2.4284C119 3.96212 119 6.56094 119 8.4355V20.5775C118.958 20.9183 118.666 21.174 118.29 21.174H114.616C114.282 21.1314 113.989 20.8757 113.948 20.5775V10.097C113.948 7.96686 114.198 4.89941 111.651 4.89941C110.774 4.89941 109.939 5.49586 109.522 6.43314C109.021 7.62604 108.937 8.77633 108.937 10.097V20.4923C108.895 20.8757 108.561 21.174 108.186 21.174V21.174ZM59.1242 11.9716C59.1242 13.4201 59.166 14.6556 58.4561 15.9763C57.8716 17.0414 56.953 17.6805 55.9091 17.6805C54.4895 17.6805 53.6544 16.5728 53.6544 14.9539C53.6544 11.7586 56.4519 11.1621 59.1242 11.1621V11.9716ZM62.8404 21.1314C62.5898 21.3444 62.2558 21.387 61.9635 21.2166C60.7526 20.1941 60.5021 19.6828 59.834 18.703C57.8298 20.7905 56.3684 21.4296 53.7796 21.4296C50.6898 21.4296 48.2681 19.4698 48.2681 15.5929C48.2681 12.5254 49.8965 10.4805 52.193 9.45798C54.1972 8.56331 56.9947 8.3929 59.1242 8.13728V7.66864C59.1242 6.77397 59.2077 5.70888 58.6649 4.94202C58.2056 4.26036 57.3705 3.96213 56.6189 3.96213C55.1993 3.96213 53.9467 4.68639 53.6544 6.22012C53.5709 6.56095 53.3621 6.90177 53.0281 6.90177L49.4789 6.51834C49.1867 6.43313 48.8526 6.22012 48.9361 5.75148C49.7712 1.32071 53.6544 0 57.1618 0C58.9572 0 61.2954 0.468637 62.7151 1.87455C64.5105 3.5787 64.3435 5.87929 64.3435 8.3503V14.187C64.3435 15.9337 65.0533 16.7006 65.7214 17.6805C65.9719 18.0213 66.0137 18.4473 65.7214 18.6604C64.9281 19.2994 63.5919 20.4923 62.8404 21.1314V21.1314ZM10.8979 11.9716C10.8979 13.4201 10.9396 14.6556 10.2298 15.9763C9.64526 17.0414 8.72666 17.6805 7.6828 17.6805C6.26316 17.6805 5.42807 16.5728 5.42807 14.9539C5.42807 11.7586 8.22562 11.1621 10.8979 11.1621V11.9716ZM14.5723 21.1314C14.3218 21.3444 13.9877 21.387 13.6954 21.2166C12.4846 20.1941 12.234 19.6828 11.566 18.703C9.56175 20.7905 8.10035 21.4296 5.51158 21.4296C2.42175 21.4296 0 19.4698 0 15.5929C0 12.5254 1.62842 10.4805 3.92491 9.45798C5.92912 8.56331 8.72667 8.3929 10.8561 8.13728V7.66864C10.8561 6.77397 10.9396 5.70888 10.3968 4.94202C9.93754 4.26036 9.10246 3.96213 8.35088 3.96213C6.93123 3.96213 5.67859 4.68639 5.38631 6.22012C5.3028 6.56095 5.09403 6.90177 4.76 6.90177L1.21087 6.51834C0.918594 6.43313 0.584564 6.22012 0.668073 5.75148C1.50316 1.32071 5.38632 0 8.89369 0C10.6891 0 13.0274 0.468637 14.447 1.87455C16.2425 3.5787 16.0754 5.87929 16.0754 8.3503V14.187C16.0754 15.9337 16.7853 16.7006 17.4533 17.6805C17.7039 18.0213 17.7456 18.4473 17.4533 18.6604C16.66 19.2994 15.3239 20.4923 14.5723 21.1314V21.1314Z" fill="white"/>
</g>
<defs>
<clipPath id="clip0_67_1719">
<rect width="119" height="36" fill="white"/>
</clipPath>
</defs>
</svg>
