<svg width="30" height="36" viewBox="0 0 30 36" fill="none" xmlns="http://www.w3.org/2000/svg">
<path d="M16.5116 3.13354C18.9235 0.0159313 22.2766 0.000732422 22.2766 0.000732422C22.2766 0.000732422 22.7754 2.93181 20.3793 5.75538C17.8208 8.77032 14.9128 8.27698 14.9128 8.27698C14.9128 8.27698 14.3668 5.90583 16.5116 3.13354V3.13354ZM15.2196 10.3302C16.4604 10.3302 18.7633 8.65749 21.7608 8.65749C26.9204 8.65749 28.9502 12.2581 28.9502 12.2581C28.9502 12.2581 24.9803 14.2487 24.9803 19.0787C24.9803 24.5274 29.9257 26.4053 29.9257 26.4053C29.9257 26.4053 26.4687 35.9479 21.7992 35.9479C19.6545 35.9479 17.9871 34.5305 15.7274 34.5305C13.4245 34.5305 11.1393 36.0007 9.65086 36.0007C5.38688 36.0008 0 26.9487 0 19.6723C0 12.5133 4.55964 8.75779 8.8364 8.75779C11.6167 8.75779 13.7742 10.3302 15.2196 10.3302V10.3302Z" fill="white"/>
</svg>
