<svg width="151" height="36" viewBox="0 0 151 36" fill="none" xmlns="http://www.w3.org/2000/svg">
<path d="M132.053 11.7886C132.89 11.7886 133.579 11.3555 133.672 10.7959L134.498 1.49504C134.498 0.575739 133.416 -0.178955 132.055 -0.178955C130.696 -0.178955 129.615 0.575735 129.615 1.4952L130.441 10.7959C130.532 11.3553 131.221 11.7886 132.056 11.7886H132.053M127.001 14.6937C127.421 13.9732 127.389 13.1634 126.947 12.8036L119.264 7.44098C118.466 6.98066 117.268 7.53473 116.588 8.70775C115.906 9.87929 116.027 11.1877 116.824 11.6482L125.33 15.5896C125.862 15.7857 126.587 15.4082 127.004 14.6882L127.001 14.6937M137.109 14.6887C137.528 15.4087 138.249 15.7864 138.782 15.5901L147.288 11.6487C148.09 11.1884 148.204 9.87979 147.528 8.70826C146.845 7.53639 145.645 6.98116 144.849 7.44147L137.166 12.8041C136.727 13.1634 136.694 13.9738 137.111 14.6942L137.109 14.6887M132.053 23.4068C132.89 23.4068 133.579 23.8363 133.672 24.3963L134.498 33.6959C134.498 34.618 133.416 35.371 132.055 35.371C130.696 35.371 129.615 34.618 129.615 33.6959L130.441 24.3963C130.532 23.8363 131.221 23.4068 132.056 23.4068H132.053M137.109 20.5011C137.528 19.7791 138.249 19.4047 138.782 19.6032L147.288 23.5419C148.09 24.0027 148.204 25.3125 147.528 26.485C146.845 27.653 145.645 28.2098 144.849 27.7501L137.166 22.3924C136.727 22.0304 136.694 21.2194 137.111 20.4996H137.108M127.001 20.5001C127.421 21.2194 127.389 22.0304 126.947 22.3931L119.264 27.7506C118.466 28.2103 117.268 27.6535 116.588 26.4855C115.906 25.313 116.027 24.0032 116.824 23.5424L125.33 19.6037C125.862 19.4052 126.587 19.7796 127.004 20.5017H127.001" fill="white"/>
<path d="M83.5937 22.3755C83.5937 22.6609 83.5682 22.9553 83.4897 23.2138C83.1638 24.2876 82.0466 25.1957 80.6488 25.1957C79.4834 25.1957 78.5577 24.5369 78.5577 23.1455C78.5577 21.016 80.9131 20.4279 83.5944 20.4427L83.5937 22.3754V22.3755ZM87.7993 18.6645C87.7993 15.153 86.2915 12.0632 81.1968 12.0632C78.5815 12.0632 76.5059 12.7942 75.373 13.4457L76.2028 16.2686C77.2382 15.6181 78.8884 15.0797 80.45 15.0797C83.0342 15.0725 83.4575 16.5359 83.4575 17.4725V17.6942C77.8243 17.6859 74.2634 19.6269 74.2634 23.5809C74.2634 25.997 76.077 28.2599 79.2297 28.2599C81.1669 28.2599 82.7895 27.4904 83.7605 26.2567H83.8564C83.8564 26.2567 84.4989 28.9353 88.0459 27.9104C87.8608 26.7965 87.8 25.6073 87.8 24.1775L87.7995 18.6645M0.0288086 7.28118C0.0288086 7.28118 3.70994 22.2911 4.29775 24.727C4.98345 27.5704 6.21928 28.6172 9.78068 27.9104L12.0791 18.6049C12.6619 16.2923 13.0519 14.6436 13.4275 12.2935H13.4928C13.7565 14.6685 14.1305 16.2995 14.6101 18.6125C14.6101 18.6125 15.5453 22.8373 16.025 25.0556C16.5053 27.2732 17.842 28.6718 21.3308 27.9104L26.8078 7.28052H22.3871L20.5164 16.2003C20.0135 18.7955 19.5576 20.8258 19.2057 23.1996H19.1432C18.8235 20.8467 18.4165 18.8993 17.9057 16.37L15.9596 7.28052H11.3528L9.27007 16.1408C8.68059 18.834 8.12779 21.0078 7.77761 23.3026H7.71391C7.35438 21.1418 6.8758 18.4086 6.35785 15.8028C6.35785 15.8028 5.12136 9.46511 4.68646 7.28052L0.0288086 7.28118M35.1699 22.3755C35.1699 22.6609 35.1444 22.9553 35.0647 23.2138C34.7395 24.2876 33.6216 25.1957 32.2238 25.1957C31.0582 25.1957 30.1339 24.5369 30.1339 23.1455C30.1339 21.016 32.4886 20.4279 35.1704 20.4427L35.1699 22.3754V22.3755ZM39.375 18.6645C39.375 15.153 37.8672 12.0632 32.7734 12.0632C30.1575 12.0632 28.0803 12.7942 26.948 13.4457L27.7768 16.2686C28.812 15.6181 30.4622 15.0797 32.0244 15.0797C34.6104 15.0725 35.0336 16.5359 35.0336 17.4725V17.6942C29.3981 17.6859 25.8389 19.6269 25.8389 23.5809C25.8389 25.997 27.6515 28.2599 30.8019 28.2599C32.7418 28.2599 34.3633 27.4904 35.3355 26.2567H35.4302C35.4302 26.2567 36.0745 28.9353 39.6208 27.9104C39.4353 26.7965 39.375 25.6073 39.375 24.1775V18.6645M46.393 23.5313V7.28118H42.1825V27.9111H46.393V23.5313ZM101.475 7.28118V22.4995C101.475 24.5986 101.873 26.0677 102.721 26.9667C103.464 27.7528 104.685 28.2615 106.149 28.2615C107.394 28.2615 108.618 28.0251 109.196 27.8119L109.142 24.5385C108.712 24.6431 108.218 24.7277 107.543 24.7277C106.108 24.7277 105.628 23.813 105.628 21.9295V16.1067H109.295V12.159H105.628V7.28118H101.475M90.607 12.4132V27.9111H94.9504V19.9759C94.9504 19.5469 94.9765 19.1732 95.0447 18.8314C95.366 17.1683 96.6433 16.1067 98.4782 16.1067C98.9811 16.1067 99.3411 16.1611 99.7312 16.2162V12.159C99.4038 12.0941 99.1817 12.0637 98.7745 12.0637C97.1536 12.0637 95.3095 13.1045 94.5356 15.337H94.4182V12.4132H90.607ZM49.3413 12.4132V27.9111H53.573V18.8231C53.573 18.3966 53.6234 17.9456 53.7718 17.5547C54.1225 16.6397 54.9783 15.568 56.3438 15.568C58.0523 15.568 58.85 17.0046 58.85 19.0778V27.9099H63.0784V18.7112C63.0784 18.3044 63.1343 17.8138 63.2552 17.4551C63.6024 16.4137 64.5242 15.5669 65.7939 15.5669C67.525 15.5669 68.3559 16.9782 68.3559 19.4185V27.9094H72.5872V18.7811C72.5872 13.9677 70.1309 12.0622 67.3577 12.0622C66.1307 12.0622 65.1612 12.3681 64.2844 12.9027C63.5482 13.3541 62.8878 13.9936 62.3117 14.8342H62.2492C61.5805 13.1641 60.0071 12.0631 57.9569 12.0631C55.323 12.0631 54.1392 13.3917 53.4211 14.5185H53.3581V12.4127H49.3413" fill="white"/>
<path d="M149.422 27.1577H149.485C149.57 27.1577 149.625 27.1229 149.625 27.0711C149.625 27.0122 149.573 26.9801 149.495 26.9801C149.468 26.9801 149.44 26.9856 149.422 26.9856V27.1592V27.1575L149.422 27.1577ZM149.412 27.5755H149.187V26.8462C149.238 26.8363 149.357 26.8185 149.509 26.8185C149.675 26.8185 149.749 26.8418 149.803 26.8783C149.849 26.9101 149.883 26.9646 149.883 27.0381C149.883 27.1129 149.813 27.1763 149.711 27.204V27.2133C149.795 27.2354 149.84 27.2954 149.864 27.4008C149.886 27.506 149.9 27.549 149.915 27.576H149.66C149.638 27.549 149.625 27.4844 149.61 27.4201C149.595 27.3462 149.56 27.3092 149.485 27.3092H149.411L149.412 27.5755V27.5755ZM149.505 26.6086C149.182 26.6086 148.938 26.8705 148.938 27.2043C148.938 27.5296 149.183 27.7949 149.514 27.7949C149.846 27.8004 150.09 27.5297 150.09 27.199C150.09 26.8698 149.846 26.6086 149.51 26.6086H149.505ZM149.519 26.4106C149.969 26.4106 150.328 26.7634 150.328 27.1989C150.328 27.6394 149.969 27.9927 149.513 27.9927C149.057 27.9927 148.693 27.6389 148.693 27.199C148.693 26.7634 149.057 26.4108 149.513 26.4108H149.518" fill="white"/>
</svg>
