<svg width="312" height="79" viewBox="0 0 312 79" fill="none" xmlns="http://www.w3.org/2000/svg">
<path d="M76.1336 22.3883H70V20.2011H84.7974V22.3883H78.6637V37.7989H76.1336V22.3883Z" fill="black"/>
<path d="M98.0807 33.3994H88.5736L86.6057 37.7989H83.9734L92.0749 20.2011H94.605L102.732 37.7989H100.049L98.0807 33.3994ZM97.1862 31.3883L93.3271 22.7654L89.4681 31.3883H97.1862Z" fill="black"/>
<path d="M113.227 38C111.421 38 109.794 37.6145 108.346 36.8436C106.898 36.0559 105.756 34.9749 104.921 33.6006C104.103 32.2263 103.694 30.6927 103.694 29C103.694 27.3073 104.103 25.7737 104.921 24.3994C105.756 23.0251 106.898 21.9525 108.346 21.1816C109.794 20.3939 111.421 20 113.227 20C115.016 20 116.635 20.3939 118.083 21.1816C119.531 21.9525 120.664 23.0251 121.482 24.3994C122.3 25.757 122.709 27.2905 122.709 29C122.709 30.7095 122.3 32.2514 121.482 33.6257C120.664 34.9832 119.531 36.0559 118.083 36.8436C116.635 37.6145 115.016 38 113.227 38ZM113.227 35.7626C114.539 35.7626 115.715 35.4693 116.754 34.8827C117.81 34.2961 118.637 33.4916 119.233 32.4693C119.846 31.4302 120.153 30.2737 120.153 29C120.153 27.7263 119.846 26.5782 119.233 25.5559C118.637 24.5168 117.81 23.7039 116.754 23.1173C115.715 22.5307 114.539 22.2374 113.227 22.2374C111.915 22.2374 110.723 22.5307 109.649 23.1173C108.593 23.7039 107.758 24.5168 107.145 25.5559C106.548 26.5782 106.25 27.7263 106.25 29C106.25 30.2737 106.548 31.4302 107.145 32.4693C107.758 33.4916 108.593 34.2961 109.649 34.8827C110.723 35.4693 111.915 35.7626 113.227 35.7626Z" fill="black"/>
<path d="M142 20.2011V37.7989H139.904L129.171 24.676V37.7989H126.615V20.2011H128.71L139.444 33.324V20.2011H142Z" fill="black"/>
<path d="M77.376 56.456V49.592H73.328L73.232 51.464C73.2107 52.0293 73.1733 52.584 73.12 53.128C73.0773 53.672 72.9973 54.1733 72.88 54.632C72.7733 55.08 72.6187 55.448 72.416 55.736C72.2133 56.0133 71.952 56.1733 71.632 56.216L70.496 56.008C70.8267 56.0187 71.0987 55.9013 71.312 55.656C71.5253 55.4 71.6907 55.0533 71.808 54.616C71.9253 54.1787 72.0107 53.6827 72.064 53.128C72.1173 52.5627 72.16 51.9867 72.192 51.4L72.304 48.6H78.512V56.456H77.376ZM70.144 59.032V56.008H79.824V59.032H78.752V57H71.216V59.032H70.144ZM80.5019 56.984L80.5819 56.008C80.6565 56.0187 80.7259 56.0347 80.7899 56.056C80.8645 56.0667 80.9285 56.072 80.9819 56.072C81.3232 56.072 81.5952 55.944 81.7979 55.688C82.0112 55.432 82.1712 55.0907 82.2779 54.664C82.3845 54.2373 82.4592 53.7573 82.5019 53.224C82.5445 52.68 82.5819 52.136 82.6139 51.592L82.7579 48.6H88.9179V57H87.7819V49.256L88.0699 49.592H83.4939L83.7659 49.24L83.6379 51.672C83.6059 52.3973 83.5472 53.0907 83.4619 53.752C83.3872 54.4133 83.2645 54.9947 83.0939 55.496C82.9339 55.9973 82.7099 56.392 82.4219 56.68C82.1339 56.9573 81.7659 57.096 81.3179 57.096C81.1899 57.096 81.0565 57.0853 80.9179 57.064C80.7899 57.0427 80.6512 57.016 80.5019 56.984ZM97.5713 57V53.976L97.7793 54.216H94.9313C93.8539 54.216 93.0113 53.9813 92.4033 53.512C91.7953 53.0427 91.4913 52.36 91.4913 51.464C91.4913 50.504 91.8166 49.7893 92.4673 49.32C93.1179 48.84 93.9873 48.6 95.0753 48.6H98.6112V57H97.5713ZM91.4273 57L93.7313 53.768H94.9153L92.6593 57H91.4273ZM97.5713 53.64V49.256L97.7793 49.592H95.1073C94.3286 49.592 93.7206 49.7413 93.2833 50.04C92.8566 50.3387 92.6432 50.824 92.6432 51.496C92.6432 52.744 93.4379 53.368 95.0273 53.368H97.7793L97.5713 53.64ZM106.038 57V48.6H107.174V52.312H112.47V48.6H113.606V57H112.47V53.288H107.174V57H106.038ZM122.051 57V55.144L122.003 54.84V51.736C122.003 51.0213 121.8 50.472 121.395 50.088C121 49.704 120.408 49.512 119.619 49.512C119.075 49.512 118.557 49.6027 118.067 49.784C117.576 49.9653 117.16 50.2053 116.819 50.504L116.307 49.656C116.733 49.2933 117.245 49.016 117.843 48.824C118.44 48.6213 119.069 48.52 119.731 48.52C120.819 48.52 121.656 48.792 122.243 49.336C122.84 49.8693 123.139 50.6853 123.139 51.784V57H122.051ZM119.155 57.08C118.525 57.08 117.976 56.9787 117.507 56.776C117.048 56.5627 116.696 56.2747 116.451 55.912C116.205 55.5387 116.083 55.112 116.083 54.632C116.083 54.1947 116.184 53.8 116.387 53.448C116.6 53.0853 116.941 52.7973 117.411 52.584C117.891 52.36 118.531 52.248 119.331 52.248H122.227V53.096H119.363C118.552 53.096 117.987 53.24 117.667 53.528C117.357 53.816 117.203 54.1733 117.203 54.6C117.203 55.08 117.389 55.464 117.763 55.752C118.136 56.04 118.659 56.184 119.331 56.184C119.971 56.184 120.52 56.04 120.979 55.752C121.448 55.4533 121.789 55.0267 122.003 54.472L122.259 55.256C122.045 55.8107 121.672 56.2533 121.139 56.584C120.616 56.9147 119.955 57.08 119.155 57.08ZM129.683 57.08C128.851 57.08 128.104 56.8987 127.443 56.536C126.792 56.1627 126.28 55.656 125.907 55.016C125.534 54.3653 125.347 53.624 125.347 52.792C125.347 51.9493 125.534 51.208 125.907 50.568C126.28 49.928 126.792 49.4267 127.443 49.064C128.104 48.7013 128.851 48.52 129.683 48.52C130.398 48.52 131.043 48.6587 131.619 48.936C132.195 49.2133 132.648 49.6293 132.979 50.184L132.131 50.76C131.843 50.3333 131.486 50.0187 131.059 49.816C130.632 49.6133 130.168 49.512 129.667 49.512C129.07 49.512 128.531 49.6507 128.051 49.928C127.571 50.1947 127.192 50.5733 126.915 51.064C126.638 51.5547 126.499 52.1307 126.499 52.792C126.499 53.4533 126.638 54.0293 126.915 54.52C127.192 55.0107 127.571 55.3947 128.051 55.672C128.531 55.9387 129.07 56.072 129.667 56.072C130.168 56.072 130.632 55.9707 131.059 55.768C131.486 55.5653 131.843 55.256 132.131 54.84L132.979 55.416C132.648 55.96 132.195 56.376 131.619 56.664C131.043 56.9413 130.398 57.08 129.683 57.08ZM139.366 57V48.6H140.502V52.312H145.798V48.6H146.934V57H145.798V53.288H140.502V57H139.366ZM153.763 57.08C152.888 57.08 152.12 56.8987 151.459 56.536C150.798 56.1627 150.28 55.656 149.907 55.016C149.534 54.3653 149.347 53.624 149.347 52.792C149.347 51.96 149.523 51.224 149.875 50.584C150.238 49.944 150.728 49.4427 151.347 49.08C151.976 48.7067 152.68 48.52 153.459 48.52C154.248 48.52 154.947 48.7013 155.555 49.064C156.174 49.416 156.659 49.9173 157.011 50.568C157.363 51.208 157.539 51.9493 157.539 52.792C157.539 52.8453 157.534 52.904 157.523 52.968C157.523 53.0213 157.523 53.08 157.523 53.144H150.211V52.296H156.915L156.467 52.632C156.467 52.024 156.334 51.4853 156.067 51.016C155.811 50.536 155.459 50.1627 155.011 49.896C154.563 49.6293 154.046 49.496 153.459 49.496C152.883 49.496 152.366 49.6293 151.907 49.896C151.448 50.1627 151.091 50.536 150.835 51.016C150.579 51.496 150.451 52.0453 150.451 52.664V52.84C150.451 53.48 150.59 54.0453 150.867 54.536C151.155 55.016 151.55 55.3947 152.051 55.672C152.563 55.9387 153.144 56.072 153.795 56.072C154.307 56.072 154.782 55.9813 155.219 55.8C155.667 55.6187 156.051 55.3413 156.371 54.968L157.011 55.704C156.638 56.152 156.168 56.4933 155.603 56.728C155.048 56.9627 154.435 57.08 153.763 57.08ZM161.279 57V49.288L161.567 49.592H158.095V48.6H165.599V49.592H162.127L162.415 49.288V57H161.279ZM174.885 57.08C174.074 57.08 173.343 56.8987 172.693 56.536C172.053 56.1627 171.546 55.656 171.173 55.016C170.799 54.3653 170.613 53.624 170.613 52.792C170.613 51.9493 170.799 51.208 171.173 50.568C171.546 49.928 172.053 49.4267 172.693 49.064C173.333 48.7013 174.063 48.52 174.885 48.52C175.717 48.52 176.453 48.7013 177.093 49.064C177.743 49.4267 178.25 49.928 178.613 50.568C178.986 51.208 179.173 51.9493 179.173 52.792C179.173 53.624 178.986 54.3653 178.613 55.016C178.25 55.656 177.743 56.1627 177.093 56.536C176.442 56.8987 175.706 57.08 174.885 57.08ZM174.885 56.072C175.493 56.072 176.031 55.9387 176.501 55.672C176.97 55.3947 177.338 55.0107 177.605 54.52C177.882 54.0187 178.021 53.4427 178.021 52.792C178.021 52.1307 177.882 51.5547 177.605 51.064C177.338 50.5733 176.97 50.1947 176.501 49.928C176.031 49.6507 175.498 49.512 174.901 49.512C174.303 49.512 173.77 49.6507 173.301 49.928C172.831 50.1947 172.458 50.5733 172.181 51.064C171.903 51.5547 171.765 52.1307 171.765 52.792C171.765 53.4427 171.903 54.0187 172.181 54.52C172.458 55.0107 172.831 55.3947 173.301 55.672C173.77 55.9387 174.298 56.072 174.885 56.072ZM181.6 57V48.6H187.552V49.592H182.448L182.736 49.304V57H181.6ZM193.53 57.08C192.805 57.08 192.149 56.9147 191.562 56.584C190.975 56.2427 190.506 55.7573 190.154 55.128C189.813 54.488 189.642 53.7093 189.642 52.792C189.642 51.8747 189.813 51.1013 190.154 50.472C190.495 49.832 190.959 49.3467 191.546 49.016C192.133 48.6853 192.794 48.52 193.53 48.52C194.33 48.52 195.045 48.7013 195.674 49.064C196.314 49.416 196.815 49.9173 197.178 50.568C197.541 51.208 197.722 51.9493 197.722 52.792C197.722 53.6453 197.541 54.392 197.178 55.032C196.815 55.672 196.314 56.1733 195.674 56.536C195.045 56.8987 194.33 57.08 193.53 57.08ZM189.194 60.104V48.6H190.282V51.128L190.17 52.808L190.33 54.504V60.104H189.194ZM193.45 56.072C194.047 56.072 194.581 55.9387 195.05 55.672C195.519 55.3947 195.893 55.0107 196.17 54.52C196.447 54.0187 196.586 53.4427 196.586 52.792C196.586 52.1413 196.447 51.5707 196.17 51.08C195.893 50.5893 195.519 50.2053 195.05 49.928C194.581 49.6507 194.047 49.512 193.45 49.512C192.853 49.512 192.314 49.6507 191.834 49.928C191.365 50.2053 190.991 50.5893 190.714 51.08C190.447 51.5707 190.314 52.1413 190.314 52.792C190.314 53.4427 190.447 54.0187 190.714 54.52C190.991 55.0107 191.365 55.3947 191.834 55.672C192.314 55.9387 192.853 56.072 193.45 56.072ZM205.332 57V55.144L205.284 54.84V51.736C205.284 51.0213 205.081 50.472 204.676 50.088C204.281 49.704 203.689 49.512 202.9 49.512C202.356 49.512 201.839 49.6027 201.348 49.784C200.857 49.9653 200.441 50.2053 200.1 50.504L199.588 49.656C200.015 49.2933 200.527 49.016 201.124 48.824C201.721 48.6213 202.351 48.52 203.012 48.52C204.1 48.52 204.937 48.792 205.524 49.336C206.121 49.8693 206.42 50.6853 206.42 51.784V57H205.332ZM202.436 57.08C201.807 57.08 201.257 56.9787 200.788 56.776C200.329 56.5627 199.977 56.2747 199.732 55.912C199.487 55.5387 199.364 55.112 199.364 54.632C199.364 54.1947 199.465 53.8 199.668 53.448C199.881 53.0853 200.223 52.7973 200.692 52.584C201.172 52.36 201.812 52.248 202.612 52.248H205.508V53.096H202.644C201.833 53.096 201.268 53.24 200.948 53.528C200.639 53.816 200.484 54.1733 200.484 54.6C200.484 55.08 200.671 55.464 201.044 55.752C201.417 56.04 201.94 56.184 202.612 56.184C203.252 56.184 203.801 56.04 204.26 55.752C204.729 55.4533 205.071 55.0267 205.284 54.472L205.54 55.256C205.327 55.8107 204.953 56.2533 204.42 56.584C203.897 56.9147 203.236 57.08 202.436 57.08ZM209.444 57V48.6H210.58V52.312H215.876V48.6H217.012V57H215.876V53.288H210.58V57H209.444ZM220.241 57V48.6H221.377V55.272L226.993 48.6H228.001V57H226.865V50.312L221.265 57H220.241ZM236.569 53.448C236.078 53.6613 235.582 53.832 235.081 53.96C234.59 54.0773 234.099 54.136 233.609 54.136C232.617 54.136 231.833 53.912 231.257 53.464C230.681 53.0053 230.393 52.3013 230.393 51.352V48.6H231.513V51.288C231.513 51.928 231.721 52.408 232.137 52.728C232.553 53.048 233.113 53.208 233.817 53.208C234.243 53.208 234.691 53.1547 235.161 53.048C235.63 52.9307 236.105 52.7653 236.585 52.552L236.569 53.448ZM236.473 57V48.6H237.609V57H236.473ZM244.435 57.08C243.56 57.08 242.792 56.8987 242.131 56.536C241.469 56.1627 240.952 55.656 240.579 55.016C240.205 54.3653 240.019 53.624 240.019 52.792C240.019 51.96 240.195 51.224 240.547 50.584C240.909 49.944 241.4 49.4427 242.019 49.08C242.648 48.7067 243.352 48.52 244.131 48.52C244.92 48.52 245.619 48.7013 246.227 49.064C246.845 49.416 247.331 49.9173 247.683 50.568C248.035 51.208 248.211 51.9493 248.211 52.792C248.211 52.8453 248.205 52.904 248.195 52.968C248.195 53.0213 248.195 53.08 248.195 53.144H240.883V52.296H247.587L247.139 52.632C247.139 52.024 247.005 51.4853 246.739 51.016C246.483 50.536 246.131 50.1627 245.683 49.896C245.235 49.6293 244.717 49.496 244.131 49.496C243.555 49.496 243.037 49.6293 242.579 49.896C242.12 50.1627 241.763 50.536 241.507 51.016C241.251 51.496 241.123 52.0453 241.123 52.664V52.84C241.123 53.48 241.261 54.0453 241.539 54.536C241.827 55.016 242.221 55.3947 242.723 55.672C243.235 55.9387 243.816 56.072 244.467 56.072C244.979 56.072 245.453 55.9813 245.891 55.8C246.339 55.6187 246.723 55.3413 247.043 54.968L247.683 55.704C247.309 56.152 246.84 56.4933 246.275 56.728C245.72 56.9627 245.107 57.08 244.435 57.08ZM250.725 57V48.6H251.861V52.312H257.157V48.6H258.293V57H257.157V53.288H251.861V57H250.725ZM261.522 57V48.6H262.658V55.272L268.274 48.6H269.282V57H268.146V50.312L262.546 57H261.522ZM272.538 57V48.6H273.674V55.272L279.29 48.6H280.298V57H279.162V50.312L273.562 57H272.538ZM276.346 47.384C275.642 47.384 275.071 47.208 274.634 46.856C274.207 46.4933 273.983 45.976 273.962 45.304H274.778C274.789 45.7307 274.938 46.0667 275.226 46.312C275.514 46.5573 275.887 46.68 276.346 46.68C276.805 46.68 277.178 46.5573 277.466 46.312C277.765 46.0667 277.919 45.7307 277.93 45.304H278.746C278.735 45.976 278.511 46.4933 278.074 46.856C277.637 47.208 277.061 47.384 276.346 47.384Z" fill="black"/>
<circle cx="30" cy="39" r="30" fill="#DC2F2F"/>
<mask id="mask0_307_22" style="mask-type:alpha" maskUnits="userSpaceOnUse" x="0" y="9" width="60" height="60">
<circle cx="30" cy="39" r="30" fill="#F75656"/>
</mask>
<g mask="url(#mask0_307_22)">
<path d="M29.2821 33C17.7949 33 7.90313 57.16 2 69H58C50.661 57.16 40.7692 33 29.2821 33Z" fill="black"/>
<mask id="mask1_307_22" style="mask-type:alpha" maskUnits="userSpaceOnUse" x="2" y="33" width="56" height="36">
<path d="M29.2821 33C17.7949 33 7.90313 57.16 2 69H58C50.661 57.16 40.7692 33 29.2821 33Z" fill="black"/>
</mask>
<g mask="url(#mask1_307_22)">
<path d="M22 40.5H16L22 27L41 29L43.5 41.5L35.5 40.5C35.5 40.5 34.4622 43.0668 33 43.5C30.9749 44.1 28.5 40.5 28.5 40.5C28.5 40.5 25.9496 44.3123 24 43.5C22.7003 42.9584 22 40.5 22 40.5Z" fill="#EFEFEF"/>
</g>
</g>
</svg>
